<svg xmlns="http://www.w3.org/2000/svg" xmlns:xlink="http://www.w3.org/1999/xlink" version="1.1" data-diagram-type="SEQUENCE" style="width:1341px;height:597px;background:#FFFFFF;" width="1341px" height="597px" viewBox="0 0 1341 597" zoomAndPan="magnify" preserveAspectRatio="none" contentStyleType="text/css"><?plantuml 1.2026.8beta1?><defs/><g font-family="sans-serif" lengthAdjust="spacing"><g><title>skill</title><rect x="44.874" y="88.594" width="8" height="419.125" fill="#000" fill-opacity="0"/><line x1="48.374" y1="88.594" x2="48.374" y2="507.719" style="stroke:#181818;stroke-width:0.5;stroke-dasharray:5,5;"/></g><g><title>PreToolUse hook</title><rect x="276.956" y="88.594" width="8" height="419.125" fill="#000" fill-opacity="0"/><line x1="280.456" y1="88.594" x2="280.456" y2="507.719" style="stroke:#181818;stroke-width:0.5;stroke-dasharray:5,5;"/></g><g><title>.git.tdd-sdlc.</title><rect x="428.087" y="88.594" width="8" height="419.125" fill="#000" fill-opacity="0"/><line x1="431.587" y1="88.594" x2="431.587" y2="507.719" style="stroke:#181818;stroke-width:0.5;stroke-dasharray:5,5;"/></g><g><title>sub-agent</title><rect x="552.919" y="88.594" width="8" height="419.125" fill="#000" fill-opacity="0"/><line x1="556.419" y1="88.594" x2="556.419" y2="507.719" style="stroke:#181818;stroke-width:0.5;stroke-dasharray:5,5;"/></g><g><title>SubagentStop hook</title><rect x="680.932" y="88.594" width="8" height="419.125" fill="#000" fill-opacity="0"/><line x1="684.432" y1="88.594" x2="684.432" y2="507.719" style="stroke:#181818;stroke-width:0.5;stroke-dasharray:5,5;"/></g><g><title>docs..n.-.task..</title><rect x="959.035" y="88.594" width="8" height="419.125" fill="#000" fill-opacity="0"/><line x1="962.535" y1="88.594" x2="962.535" y2="507.719" style="stroke:#181818;stroke-width:0.5;stroke-dasharray:5,5;"/></g><g><title>cost.sh report</title><rect x="1093.721" y="88.594" width="8" height="419.125" fill="#000" fill-opacity="0"/><line x1="1097.221" y1="88.594" x2="1097.221" y2="507.719" style="stroke:#181818;stroke-width:0.5;stroke-dasharray:5,5;"/></g><g><title>docs..n.-.task..</title><rect x="1257.763" y="88.594" width="8" height="419.125" fill="#000" fill-opacity="0"/><line x1="1261.263" y1="88.594" x2="1261.263" y2="507.719" style="stroke:#181818;stroke-width:0.5;stroke-dasharray:5,5;"/></g><rect x="10" y="41" width="76.747" height="46.594" fill="#F4F6F8" style="stroke:#888;stroke-width:0.5;" rx="2.5" ry="2.5"/><text x="34.838" y="60.995" fill="#000" font-size="14" textLength="27.07" font-family="Helvetica">skill</text><text x="17" y="77.292" fill="#000" font-size="14" textLength="62.747" font-family="Helvetica">(session)</text><rect x="214.906" y="41" width="131.1" height="46.594" fill="#F4F6F8" style="stroke:#888;stroke-width:0.5;" rx="2.5" ry="2.5"/><text x="221.906" y="60.995" fill="#000" font-size="14" textLength="117.1" font-family="Helvetica">PreToolUse hook</text><text x="257.819" y="77.292" fill="#000" font-size="14" textLength="45.274" font-family="Helvetica">(Bash)</text><text x="384.471" y="68.995" fill="#000" font-size="14" textLength="88.231" font-family="Helvetica">.git/tdd-sdlc/</text><text x="359.028" y="85.292" fill="#000" font-size="14" textLength="139.118" font-family="Helvetica">sessions/&lt;session></text><path d="M413.587,20 C413.587,10 431.587,10 431.587,10 C431.587,10 449.587,10 449.587,20 L449.587,46 C449.587,56 431.587,56 431.587,56 C431.587,56 413.587,56 413.587,46 L413.587,20" style="stroke:#888;stroke-width:0.5;" fill="#FFF"/><path d="M413.587,20 C413.587,30 431.587,30 431.587,30 C431.587,30 449.587,30 449.587,20" style="stroke:#888;stroke-width:0.5;" fill="none"/><rect x="514.146" y="57.297" width="84.547" height="30.297" fill="#F4F6F8" style="stroke:#888;stroke-width:0.5;" rx="2.5" ry="2.5"/><text x="521.146" y="77.292" fill="#000" font-size="14" textLength="70.547" font-family="Helvetica">sub-agent</text><rect x="608.693" y="57.297" width="151.478" height="30.297" fill="#F4F6F8" style="stroke:#888;stroke-width:0.5;" rx="2.5" ry="2.5"/><text x="615.693" y="77.292" fill="#000" font-size="14" textLength="137.478" font-family="Helvetica">SubagentStop hook</text><text x="893.438" y="68.995" fill="#000" font-size="14" textLength="132.193" font-family="Helvetica">docs/&lt;n>-&lt;task>/</text><text x="900.869" y="85.292" fill="#000" font-size="14" textLength="117.332" font-family="Helvetica">review/cost.jsonl</text><path d="M944.535,20 C944.535,10 962.535,10 962.535,10 C962.535,10 980.535,10 980.535,20 L980.535,46 C980.535,56 962.535,56 962.535,56 C962.535,56 944.535,56 944.535,46 L944.535,20" style="stroke:#888;stroke-width:0.5;" fill="#FFF"/><path d="M944.535,20 C944.535,30 962.535,30 962.535,30 C962.535,30 980.535,30 980.535,20" style="stroke:#888;stroke-width:0.5;" fill="none"/><rect x="1041.631" y="57.297" width="111.18" height="30.297" fill="#F4F6F8" style="stroke:#888;stroke-width:0.5;" rx="2.5" ry="2.5"/><text x="1048.631" y="77.292" fill="#000" font-size="14" textLength="97.18" font-family="Helvetica">cost.sh report</text><text x="1192.167" y="68.995" fill="#000" font-size="14" textLength="132.193" font-family="Helvetica">docs/&lt;n>-&lt;task>/</text><text x="1204.591" y="85.292" fill="#000" font-size="14" textLength="107.345" font-family="Helvetica">review/cost.md</text><path d="M1243.263,20 C1243.263,10 1261.263,10 1261.263,10 C1261.263,10 1279.263,10 1279.263,20 L1279.263,46 C1279.263,56 1261.263,56 1261.263,56 C1261.263,56 1243.263,56 1243.263,46 L1243.263,20" style="stroke:#888;stroke-width:0.5;" fill="#FFF"/><path d="M1243.263,20 C1243.263,30 1261.263,30 1261.263,30 C1261.263,30 1279.263,30 1279.263,20" style="stroke:#888;stroke-width:0.5;" fill="none"/><rect x="10" y="507.719" width="76.747" height="46.594" fill="#F4F6F8" style="stroke:#888;stroke-width:0.5;" rx="2.5" ry="2.5"/><text x="34.838" y="527.714" fill="#000" font-size="14" textLength="27.07" font-family="Helvetica">skill</text><text x="17" y="544.011" fill="#000" font-size="14" textLength="62.747" font-family="Helvetica">(session)</text><rect x="214.906" y="507.719" width="131.1" height="46.594" fill="#F4F6F8" style="stroke:#888;stroke-width:0.5;" rx="2.5" ry="2.5"/><text x="221.906" y="527.714" fill="#000" font-size="14" textLength="117.1" font-family="Helvetica">PreToolUse hook</text><text x="257.819" y="544.011" fill="#000" font-size="14" textLength="45.274" font-family="Helvetica">(Bash)</text><text x="384.471" y="520.714" fill="#000" font-size="14" textLength="88.231" font-family="Helvetica">.git/tdd-sdlc/</text><text x="359.028" y="537.011" fill="#000" font-size="14" textLength="139.118" font-family="Helvetica">sessions/&lt;session></text><path d="M413.587,550.313 C413.587,540.313 431.587,540.313 431.587,540.313 C431.587,540.313 449.587,540.313 449.587,550.313 L449.587,576.313 C449.587,586.313 431.587,586.313 431.587,586.313 C431.587,586.313 413.587,586.313 413.587,576.313 L413.587,550.313" style="stroke:#888;stroke-width:0.5;" fill="#FFF"/><path d="M413.587,550.313 C413.587,560.313 431.587,560.313 431.587,560.313 C431.587,560.313 449.587,560.313 449.587,550.313" style="stroke:#888;stroke-width:0.5;" fill="none"/><rect x="514.146" y="507.719" width="84.547" height="30.297" fill="#F4F6F8" style="stroke:#888;stroke-width:0.5;" rx="2.5" ry="2.5"/><text x="521.146" y="527.714" fill="#000" font-size="14" textLength="70.547" font-family="Helvetica">sub-agent</text><rect x="608.693" y="507.719" width="151.478" height="30.297" fill="#F4F6F8" style="stroke:#888;stroke-width:0.5;" rx="2.5" ry="2.5"/><text x="615.693" y="527.714" fill="#000" font-size="14" textLength="137.478" font-family="Helvetica">SubagentStop hook</text><text x="893.438" y="520.714" fill="#000" font-size="14" textLength="132.193" font-family="Helvetica">docs/&lt;n>-&lt;task>/</text><text x="900.869" y="537.011" fill="#000" font-size="14" textLength="117.332" font-family="Helvetica">review/cost.jsonl</text><path d="M944.535,550.313 C944.535,540.313 962.535,540.313 962.535,540.313 C962.535,540.313 980.535,540.313 980.535,550.313 L980.535,576.313 C980.535,586.313 962.535,586.313 962.535,586.313 C962.535,586.313 944.535,586.313 944.535,576.313 L944.535,550.313" style="stroke:#888;stroke-width:0.5;" fill="#FFF"/><path d="M944.535,550.313 C944.535,560.313 962.535,560.313 962.535,560.313 C962.535,560.313 980.535,560.313 980.535,550.313" style="stroke:#888;stroke-width:0.5;" fill="none"/><rect x="1041.631" y="507.719" width="111.18" height="30.297" fill="#F4F6F8" style="stroke:#888;stroke-width:0.5;" rx="2.5" ry="2.5"/><text x="1048.631" y="527.714" fill="#000" font-size="14" textLength="97.18" font-family="Helvetica">cost.sh report</text><text x="1192.167" y="520.714" fill="#000" font-size="14" textLength="132.193" font-family="Helvetica">docs/&lt;n>-&lt;task>/</text><text x="1204.591" y="537.011" fill="#000" font-size="14" textLength="107.345" font-family="Helvetica">review/cost.md</text><path d="M1243.263,550.313 C1243.263,540.313 1261.263,540.313 1261.263,540.313 C1261.263,540.313 1279.263,540.313 1279.263,550.313 L1279.263,576.313 C1279.263,586.313 1261.263,586.313 1261.263,586.313 C1261.263,586.313 1243.263,586.313 1243.263,576.313 L1243.263,550.313" style="stroke:#888;stroke-width:0.5;" fill="#FFF"/><path d="M1243.263,550.313 C1243.263,560.313 1261.263,560.313 1261.263,560.313 C1261.263,560.313 1279.263,560.313 1279.263,550.313" style="stroke:#888;stroke-width:0.5;" fill="none"/><polygon points="268.456,113.727,278.456,117.727,268.456,121.727,272.456,117.727" fill="#444" style="stroke:#444;stroke-width:1;stroke-linejoin:miter;stroke-miterlimit:10;"/><line x1="48.374" y1="117.727" x2="274.456" y2="117.727" style="stroke:#444;stroke-width:1;"/><text x="60.374" y="112.661" fill="#000" font-size="13" textLength="208.083" font-family="Helvetica">plan.sh status docs/7-x/plan.md</text><polygon points="419.587,142.859,429.587,146.859,419.587,150.859,423.587,146.859" fill="#444" style="stroke:#444;stroke-width:1;stroke-linejoin:miter;stroke-miterlimit:10;"/><line x1="280.456" y1="146.859" x2="425.587" y2="146.859" style="stroke:#444;stroke-width:1;"/><text x="292.456" y="141.793" fill="#000" font-size="13" textLength="127.131" font-family="Helvetica">session -> docs/7-x</text><path d="M285.456,159.859 L285.456,199.859 L470.456,199.859 L470.456,169.859 L460.456,159.859 L285.456,159.859" style="stroke:#B8860B;stroke-width:0.5;" fill="#FFF6DD"/><path d="M460.456,159.859 L460.456,169.859 L470.456,169.859 L460.456,159.859" style="stroke:#B8860B;stroke-width:0.5;" fill="#FFF6DD"/><text x="291.456" y="176.926" fill="#000" font-size="13" textLength="164.868" font-family="Helvetica">any framework script call</text><text x="291.456" y="192.059" fill="#000" font-size="13" textLength="155.143" font-family="Helvetica">naming a task directory</text><polygon points="544.419,237.391,554.419,241.391,544.419,245.391,548.419,241.391" fill="#444" style="stroke:#444;stroke-width:1;stroke-linejoin:miter;stroke-miterlimit:10;"/><line x1="48.374" y1="241.391" x2="550.419" y2="241.391" style="stroke:#444;stroke-width:1;"/><text x="229.665" y="221.192" fill="#000" font-size="13" textLength="145.463" font-family="Helvetica">spawn, prompt names</text><text x="213.19" y="236.325" fill="#000" font-size="13" textLength="178.414" font-family="Helvetica">docs/7-x/module-a/plan.md</text><polygon points="672.432,266.523,682.432,270.523,672.432,274.523,676.432,270.523" fill="#444" style="stroke:#444;stroke-width:1;stroke-linejoin:miter;stroke-miterlimit:10;"/><line x1="556.419" y1="270.523" x2="678.432" y2="270.523" style="stroke:#444;stroke-width:1;"/><text x="583.952" y="265.458" fill="#000" font-size="13" textLength="72.947" font-family="Helvetica">agent ends</text><line x1="684.432" y1="314.789" x2="726.432" y2="314.789" style="stroke:#444;stroke-width:1;"/><line x1="726.432" y1="314.789" x2="726.432" y2="327.789" style="stroke:#444;stroke-width:1;"/><line x1="685.432" y1="327.789" x2="726.432" y2="327.789" style="stroke:#444;stroke-width:1;"/><polygon points="695.432,323.789,685.432,327.789,695.432,331.789,691.432,327.789" fill="#444" style="stroke:#444;stroke-width:1;stroke-linejoin:miter;stroke-miterlimit:10;"/><text x="724.332" y="294.59" fill="#000" font-size="13" textLength="178.382" font-family="Helvetica">type is a framework agent?</text><text x="691.432" y="309.723" fill="#000" font-size="13" textLength="244.182" font-family="Helvetica">path in the prompt, else the mapping</text><polygon points="950.535,383.188,960.535,387.188,950.535,391.188,954.535,387.188" fill="#444" style="stroke:#444;stroke-width:1;stroke-linejoin:miter;stroke-miterlimit:10;"/><line x1="684.432" y1="387.188" x2="956.535" y2="387.188" style="stroke:#444;stroke-width:1;"/><text x="705.366" y="351.856" fill="#000" font-size="13" textLength="236.234" font-family="Helvetica">one line: time, session, type, model,</text><text x="696.432" y="366.989" fill="#000" font-size="13" textLength="254.103" font-family="Helvetica">turns, four token counts, peak context,</text><text x="753.034" y="382.122" fill="#000" font-size="13" textLength="140.899" font-family="Helvetica">wall time, offset, plan</text><polygon points="1085.221,412.32,1095.221,416.32,1085.221,420.32,1089.221,416.32" fill="#444" style="stroke:#444;stroke-width:1;stroke-linejoin:miter;stroke-miterlimit:10;"/><line x1="48.374" y1="416.32" x2="1091.221" y2="416.32" style="stroke:#444;stroke-width:1;"/><text x="513.018" y="411.254" fill="#000" font-size="13" textLength="119.558" font-family="Helvetica">at the task's finish</text><polygon points="973.535,441.453,963.535,445.453,973.535,449.453,969.535,445.453" fill="#444" style="stroke:#444;stroke-width:1;stroke-linejoin:miter;stroke-miterlimit:10;"/><line x1="967.535" y1="445.453" x2="1096.221" y2="445.453" style="stroke:#444;stroke-width:1;"/><text x="1015.097" y="440.387" fill="#000" font-size="13" textLength="29.561" font-family="Helvetica">read</text><polygon points="1249.263,485.719,1259.263,489.719,1249.263,493.719,1253.263,489.719" fill="#444" style="stroke:#444;stroke-width:1;stroke-linejoin:miter;stroke-miterlimit:10;"/><line x1="1097.221" y1="489.719" x2="1255.263" y2="489.719" style="stroke:#444;stroke-width:1;"/><text x="1109.221" y="469.52" fill="#000" font-size="13" textLength="140.042" font-family="Helvetica">per session, per plan,</text><text x="1131.016" y="484.653" fill="#000" font-size="13" textLength="96.453" font-family="Helvetica">per agent type</text><?plantuml-src ZLF1Rjim3BtxAuZki0rmcXs2BXYA3CdIO1ZMDcYwMowiHSUQPSgJvAR5i7yVfJXfMg3OV31iyl7nyL7ojUOM7JQWgCJEX8NbS8KDmLSoznHqWPa_O7o5ocurRw14u-aeCtNERhzOOnsy6Or6npNqgoCkw9AynmrDZTum5CI1t15Atj9BjyW1VcS0CopgZRCTgvvqCLgSBSOnOvqYrqV7ut7svuX6OS0xzFGAHth-nS4sl5v_Df-_h9-DnsSVPaAH7Gzn8eJ6hFcTbxcrvVSdW1vMpp5BHxVMcXyYkBAs5lGCVRM3BcykiiCu9wSR7OP1gO5NfXYkkMVrm_F-QvAABgVB5ogwku6upY6bfy-Jg-ukvLR1jad0JkFjzVAeixA5TE79u3oWhoVIsz6zfksmi3wS_lIMJIhxjhg--lwSFo5y1OvQwtOARYx-dxjHkvdcMRQ2mIGw0f-WDSYHr0SCdOT4yN7mC4pnHcKH9M1nGi2zEJ6m1sPflqvlgW2sJ3O383z2ASkdhNKr-CBfDa21naYEiOad7Y5g1AKT5S6wnunOfREo4pUDtLhSSWwjiusKIntvDHy4DbPrXWPuK3gDTT5jAKrx0A7qMOeyPS9ZIw2zz7yIcD2Vrt9WGmMQ8LJKTys1v6AcG8DjAy8FV6b1GcYPm6WceTODvNkFyjGf1v599bzpw1px74hREGYs9hcqSXM2X5h2Mdxa1Zy40Mx5ffxAbgKdqH0dtDaY-uxJXQGe6lZMGwbP-ogBgIDPZb3jOvVpk6XoJzhYJsILVl5pPrSK_1S0?></g></svg>