<svg xmlns="http://www.w3.org/2000/svg" xmlns:xlink="http://www.w3.org/1999/xlink" version="1.1" data-diagram-type="SEQUENCE" style="width:1705px;height:685px;background:#FFFFFF;" width="1705px" height="685px" viewBox="0 0 1705 685" zoomAndPan="magnify" preserveAspectRatio="none" contentStyleType="text/css"><?plantuml 1.2026.8beta1?><defs/><g font-family="sans-serif" lengthAdjust="spacing"><g><title>skill</title><rect x="44.874" y="88.594" width="8" height="507.656" fill="#000" fill-opacity="0"/><line x1="48.374" y1="88.594" x2="48.374" y2="596.25" style="stroke:#181818;stroke-width:0.5;stroke-dasharray:5,5;"/></g><g><title>PreToolUse hook</title><rect x="276.956" y="88.594" width="8" height="507.656" fill="#000" fill-opacity="0"/><line x1="280.456" y1="88.594" x2="280.456" y2="596.25" style="stroke:#181818;stroke-width:0.5;stroke-dasharray:5,5;"/></g><g><title>.git.tdd-sdlc.</title><rect x="428.087" y="88.594" width="8" height="507.656" fill="#000" fill-opacity="0"/><line x1="431.587" y1="88.594" x2="431.587" y2="596.25" style="stroke:#181818;stroke-width:0.5;stroke-dasharray:5,5;"/></g><g><title>sub-agent</title><rect x="552.919" y="88.594" width="8" height="507.656" fill="#000" fill-opacity="0"/><line x1="556.419" y1="88.594" x2="556.419" y2="596.25" style="stroke:#181818;stroke-width:0.5;stroke-dasharray:5,5;"/></g><g><title>SubagentStop hook</title><rect x="680.932" y="88.594" width="8" height="507.656" fill="#000" fill-opacity="0"/><line x1="684.432" y1="88.594" x2="684.432" y2="596.25" style="stroke:#181818;stroke-width:0.5;stroke-dasharray:5,5;"/></g><g><title>docs..n.-.task..</title><rect x="952.071" y="88.594" width="8" height="507.656" fill="#000" fill-opacity="0"/><line x1="955.571" y1="88.594" x2="955.571" y2="596.25" style="stroke:#181818;stroke-width:0.5;stroke-dasharray:5,5;"/></g><g><title>cost.sh report</title><rect x="1086.758" y="88.594" width="8" height="507.656" fill="#000" fill-opacity="0"/><line x1="1090.258" y1="88.594" x2="1090.258" y2="596.25" style="stroke:#181818;stroke-width:0.5;stroke-dasharray:5,5;"/></g><g><title>rates. bundled</title><rect x="1301.537" y="88.594" width="8" height="507.656" fill="#000" fill-opacity="0"/><line x1="1305.037" y1="88.594" x2="1305.037" y2="596.25" style="stroke:#181818;stroke-width:0.5;stroke-dasharray:5,5;"/></g><g><title>docs..n.-.task..</title><rect x="1466.782" y="88.594" width="8" height="507.656" fill="#000" fill-opacity="0"/><line x1="1470.282" y1="88.594" x2="1470.282" y2="596.25" style="stroke:#181818;stroke-width:0.5;stroke-dasharray:5,5;"/></g><g><title>docs..n.-.task..</title><rect x="1618.513" y="88.594" width="8" height="507.656" fill="#000" fill-opacity="0"/><line x1="1622.013" y1="88.594" x2="1622.013" y2="596.25" style="stroke:#181818;stroke-width:0.5;stroke-dasharray:5,5;"/></g><rect x="10" y="41" width="76.747" height="46.594" fill="#F4F6F8" style="stroke:#888;stroke-width:0.5;" rx="2.5" ry="2.5"/><text x="34.838" y="60.995" fill="#000" font-size="14" textLength="27.07" font-family="Helvetica">skill</text><text x="17" y="77.292" fill="#000" font-size="14" textLength="62.747" font-family="Helvetica">(session)</text><rect x="214.906" y="41" width="131.1" height="46.594" fill="#F4F6F8" style="stroke:#888;stroke-width:0.5;" rx="2.5" ry="2.5"/><text x="221.906" y="60.995" fill="#000" font-size="14" textLength="117.1" font-family="Helvetica">PreToolUse hook</text><text x="257.819" y="77.292" fill="#000" font-size="14" textLength="45.274" font-family="Helvetica">(Bash)</text><text x="384.471" y="68.995" fill="#000" font-size="14" textLength="88.231" font-family="Helvetica">.git/tdd-sdlc/</text><text x="359.028" y="85.292" fill="#000" font-size="14" textLength="139.118" font-family="Helvetica">sessions/&lt;session></text><path d="M413.587,20 C413.587,10 431.587,10 431.587,10 C431.587,10 449.587,10 449.587,20 L449.587,46 C449.587,56 431.587,56 431.587,56 C431.587,56 413.587,56 413.587,46 L413.587,20" style="stroke:#888;stroke-width:0.5;" fill="#FFF"/><path d="M413.587,20 C413.587,30 431.587,30 431.587,30 C431.587,30 449.587,30 449.587,20" style="stroke:#888;stroke-width:0.5;" fill="none"/><rect x="514.146" y="57.297" width="84.547" height="30.297" fill="#F4F6F8" style="stroke:#888;stroke-width:0.5;" rx="2.5" ry="2.5"/><text x="521.146" y="77.292" fill="#000" font-size="14" textLength="70.547" font-family="Helvetica">sub-agent</text><rect x="608.693" y="57.297" width="151.478" height="30.297" fill="#F4F6F8" style="stroke:#888;stroke-width:0.5;" rx="2.5" ry="2.5"/><text x="615.693" y="77.292" fill="#000" font-size="14" textLength="137.478" font-family="Helvetica">SubagentStop hook</text><text x="886.475" y="68.995" fill="#000" font-size="14" textLength="132.193" font-family="Helvetica">docs/&lt;n>-&lt;task>/</text><text x="893.905" y="85.292" fill="#000" font-size="14" textLength="117.332" font-family="Helvetica">review/cost.jsonl</text><path d="M937.571,20 C937.571,10 955.571,10 955.571,10 C955.571,10 973.571,10 973.571,20 L973.571,46 C973.571,56 955.571,56 955.571,56 C955.571,56 937.571,56 937.571,46 L937.571,20" style="stroke:#888;stroke-width:0.5;" fill="#FFF"/><path d="M937.571,20 C937.571,30 955.571,30 955.571,30 C955.571,30 973.571,30 973.571,20" style="stroke:#888;stroke-width:0.5;" fill="none"/><rect x="1034.668" y="57.297" width="111.18" height="30.297" fill="#F4F6F8" style="stroke:#888;stroke-width:0.5;" rx="2.5" ry="2.5"/><text x="1041.668" y="77.292" fill="#000" font-size="14" textLength="97.18" font-family="Helvetica">cost.sh report</text><text x="1251.133" y="68.995" fill="#000" font-size="14" textLength="101.808" font-family="Helvetica">rates: bundled</text><text x="1218.888" y="85.292" fill="#000" font-size="14" textLength="166.298" font-family="Helvetica">pricing.json, user cache</text><path d="M1287.037,20 C1287.037,10 1305.037,10 1305.037,10 C1305.037,10 1323.037,10 1323.037,20 L1323.037,46 C1323.037,56 1305.037,56 1305.037,56 C1305.037,56 1287.037,56 1287.037,46 L1287.037,20" style="stroke:#888;stroke-width:0.5;" fill="#FFF"/><path d="M1287.037,20 C1287.037,30 1305.037,30 1305.037,30 C1305.037,30 1323.037,30 1323.037,20" style="stroke:#888;stroke-width:0.5;" fill="none"/><text x="1401.186" y="68.995" fill="#000" font-size="14" textLength="132.193" font-family="Helvetica">docs/&lt;n>-&lt;task>/</text><text x="1413.61" y="85.292" fill="#000" font-size="14" textLength="107.345" font-family="Helvetica">review/cost.md</text><path d="M1452.282,20 C1452.282,10 1470.282,10 1470.282,10 C1470.282,10 1488.282,10 1488.282,20 L1488.282,46 C1488.282,56 1470.282,56 1470.282,56 C1470.282,56 1452.282,56 1452.282,46 L1452.282,20" style="stroke:#888;stroke-width:0.5;" fill="#FFF"/><path d="M1452.282,20 C1452.282,30 1470.282,30 1470.282,30 C1470.282,30 1488.282,30 1488.282,20" style="stroke:#888;stroke-width:0.5;" fill="none"/><text x="1552.917" y="68.995" fill="#000" font-size="14" textLength="132.193" font-family="Helvetica">docs/&lt;n>-&lt;task>/</text><text x="1549.379" y="85.292" fill="#000" font-size="14" textLength="139.269" font-family="Helvetica">review/activity.html</text><path d="M1604.013,20 C1604.013,10 1622.013,10 1622.013,10 C1622.013,10 1640.013,10 1640.013,20 L1640.013,46 C1640.013,56 1622.013,56 1622.013,56 C1622.013,56 1604.013,56 1604.013,46 L1604.013,20" style="stroke:#888;stroke-width:0.5;" fill="#FFF"/><path d="M1604.013,20 C1604.013,30 1622.013,30 1622.013,30 C1622.013,30 1640.013,30 1640.013,20" style="stroke:#888;stroke-width:0.5;" fill="none"/><rect x="10" y="596.25" width="76.747" height="46.594" fill="#F4F6F8" style="stroke:#888;stroke-width:0.5;" rx="2.5" ry="2.5"/><text x="34.838" y="616.245" fill="#000" font-size="14" textLength="27.07" font-family="Helvetica">skill</text><text x="17" y="632.542" fill="#000" font-size="14" textLength="62.747" font-family="Helvetica">(session)</text><rect x="214.906" y="596.25" width="131.1" height="46.594" fill="#F4F6F8" style="stroke:#888;stroke-width:0.5;" rx="2.5" ry="2.5"/><text x="221.906" y="616.245" fill="#000" font-size="14" textLength="117.1" font-family="Helvetica">PreToolUse hook</text><text x="257.819" y="632.542" fill="#000" font-size="14" textLength="45.274" font-family="Helvetica">(Bash)</text><text x="384.471" y="609.245" fill="#000" font-size="14" textLength="88.231" font-family="Helvetica">.git/tdd-sdlc/</text><text x="359.028" y="625.542" fill="#000" font-size="14" textLength="139.118" font-family="Helvetica">sessions/&lt;session></text><path d="M413.587,638.844 C413.587,628.844 431.587,628.844 431.587,628.844 C431.587,628.844 449.587,628.844 449.587,638.844 L449.587,664.844 C449.587,674.844 431.587,674.844 431.587,674.844 C431.587,674.844 413.587,674.844 413.587,664.844 L413.587,638.844" style="stroke:#888;stroke-width:0.5;" fill="#FFF"/><path d="M413.587,638.844 C413.587,648.844 431.587,648.844 431.587,648.844 C431.587,648.844 449.587,648.844 449.587,638.844" style="stroke:#888;stroke-width:0.5;" fill="none"/><rect x="514.146" y="596.25" width="84.547" height="30.297" fill="#F4F6F8" style="stroke:#888;stroke-width:0.5;" rx="2.5" ry="2.5"/><text x="521.146" y="616.245" fill="#000" font-size="14" textLength="70.547" font-family="Helvetica">sub-agent</text><rect x="608.693" y="596.25" width="151.478" height="30.297" fill="#F4F6F8" style="stroke:#888;stroke-width:0.5;" rx="2.5" ry="2.5"/><text x="615.693" y="616.245" fill="#000" font-size="14" textLength="137.478" font-family="Helvetica">SubagentStop hook</text><text x="886.475" y="609.245" fill="#000" font-size="14" textLength="132.193" font-family="Helvetica">docs/&lt;n>-&lt;task>/</text><text x="893.905" y="625.542" fill="#000" font-size="14" textLength="117.332" font-family="Helvetica">review/cost.jsonl</text><path d="M937.571,638.844 C937.571,628.844 955.571,628.844 955.571,628.844 C955.571,628.844 973.571,628.844 973.571,638.844 L973.571,664.844 C973.571,674.844 955.571,674.844 955.571,674.844 C955.571,674.844 937.571,674.844 937.571,664.844 L937.571,638.844" style="stroke:#888;stroke-width:0.5;" fill="#FFF"/><path d="M937.571,638.844 C937.571,648.844 955.571,648.844 955.571,648.844 C955.571,648.844 973.571,648.844 973.571,638.844" style="stroke:#888;stroke-width:0.5;" fill="none"/><rect x="1034.668" y="596.25" width="111.18" height="30.297" fill="#F4F6F8" style="stroke:#888;stroke-width:0.5;" rx="2.5" ry="2.5"/><text x="1041.668" y="616.245" fill="#000" font-size="14" textLength="97.18" font-family="Helvetica">cost.sh report</text><text x="1251.133" y="609.245" fill="#000" font-size="14" textLength="101.808" font-family="Helvetica">rates: bundled</text><text x="1218.888" y="625.542" fill="#000" font-size="14" textLength="166.298" font-family="Helvetica">pricing.json, user cache</text><path d="M1287.037,638.844 C1287.037,628.844 1305.037,628.844 1305.037,628.844 C1305.037,628.844 1323.037,628.844 1323.037,638.844 L1323.037,664.844 C1323.037,674.844 1305.037,674.844 1305.037,674.844 C1305.037,674.844 1287.037,674.844 1287.037,664.844 L1287.037,638.844" style="stroke:#888;stroke-width:0.5;" fill="#FFF"/><path d="M1287.037,638.844 C1287.037,648.844 1305.037,648.844 1305.037,648.844 C1305.037,648.844 1323.037,648.844 1323.037,638.844" style="stroke:#888;stroke-width:0.5;" fill="none"/><text x="1401.186" y="609.245" fill="#000" font-size="14" textLength="132.193" font-family="Helvetica">docs/&lt;n>-&lt;task>/</text><text x="1413.61" y="625.542" fill="#000" font-size="14" textLength="107.345" font-family="Helvetica">review/cost.md</text><path d="M1452.282,638.844 C1452.282,628.844 1470.282,628.844 1470.282,628.844 C1470.282,628.844 1488.282,628.844 1488.282,638.844 L1488.282,664.844 C1488.282,674.844 1470.282,674.844 1470.282,674.844 C1470.282,674.844 1452.282,674.844 1452.282,664.844 L1452.282,638.844" style="stroke:#888;stroke-width:0.5;" fill="#FFF"/><path d="M1452.282,638.844 C1452.282,648.844 1470.282,648.844 1470.282,648.844 C1470.282,648.844 1488.282,648.844 1488.282,638.844" style="stroke:#888;stroke-width:0.5;" fill="none"/><text x="1552.917" y="609.245" fill="#000" font-size="14" textLength="132.193" font-family="Helvetica">docs/&lt;n>-&lt;task>/</text><text x="1549.379" y="625.542" fill="#000" font-size="14" textLength="139.269" font-family="Helvetica">review/activity.html</text><path d="M1604.013,638.844 C1604.013,628.844 1622.013,628.844 1622.013,628.844 C1622.013,628.844 1640.013,628.844 1640.013,638.844 L1640.013,664.844 C1640.013,674.844 1622.013,674.844 1622.013,674.844 C1622.013,674.844 1604.013,674.844 1604.013,664.844 L1604.013,638.844" style="stroke:#888;stroke-width:0.5;" fill="#FFF"/><path d="M1604.013,638.844 C1604.013,648.844 1622.013,648.844 1622.013,648.844 C1622.013,648.844 1640.013,648.844 1640.013,638.844" style="stroke:#888;stroke-width:0.5;" fill="none"/><polygon points="268.456,113.727,278.456,117.727,268.456,121.727,272.456,117.727" fill="#444" style="stroke:#444;stroke-width:1;stroke-linejoin:miter;stroke-miterlimit:10;"/><line x1="48.374" y1="117.727" x2="274.456" y2="117.727" style="stroke:#444;stroke-width:1;"/><text x="60.374" y="112.661" fill="#000" font-size="13" textLength="208.083" font-family="Helvetica">plan.sh status docs/7-x/plan.md</text><polygon points="419.587,142.859,429.587,146.859,419.587,150.859,423.587,146.859" fill="#444" style="stroke:#444;stroke-width:1;stroke-linejoin:miter;stroke-miterlimit:10;"/><line x1="280.456" y1="146.859" x2="425.587" y2="146.859" style="stroke:#444;stroke-width:1;"/><text x="292.456" y="141.793" fill="#000" font-size="13" textLength="127.131" font-family="Helvetica">session -> docs/7-x</text><path d="M285.456,159.859 L285.456,199.859 L470.456,199.859 L470.456,169.859 L460.456,159.859 L285.456,159.859" style="stroke:#B8860B;stroke-width:0.5;" fill="#FFF6DD"/><path d="M460.456,159.859 L460.456,169.859 L470.456,169.859 L460.456,159.859" style="stroke:#B8860B;stroke-width:0.5;" fill="#FFF6DD"/><text x="291.456" y="176.926" fill="#000" font-size="13" textLength="164.868" font-family="Helvetica">any framework script call</text><text x="291.456" y="192.059" fill="#000" font-size="13" textLength="155.143" font-family="Helvetica">naming a task directory</text><polygon points="544.419,237.391,554.419,241.391,544.419,245.391,548.419,241.391" fill="#444" style="stroke:#444;stroke-width:1;stroke-linejoin:miter;stroke-miterlimit:10;"/><line x1="48.374" y1="241.391" x2="550.419" y2="241.391" style="stroke:#444;stroke-width:1;"/><text x="229.665" y="221.192" fill="#000" font-size="13" textLength="145.463" font-family="Helvetica">spawn, prompt names</text><text x="213.19" y="236.325" fill="#000" font-size="13" textLength="178.414" font-family="Helvetica">docs/7-x/module-a/plan.md</text><polygon points="672.432,266.523,682.432,270.523,672.432,274.523,676.432,270.523" fill="#444" style="stroke:#444;stroke-width:1;stroke-linejoin:miter;stroke-miterlimit:10;"/><line x1="556.419" y1="270.523" x2="678.432" y2="270.523" style="stroke:#444;stroke-width:1;"/><text x="583.952" y="265.458" fill="#000" font-size="13" textLength="72.947" font-family="Helvetica">agent ends</text><line x1="684.432" y1="314.789" x2="726.432" y2="314.789" style="stroke:#444;stroke-width:1;"/><line x1="726.432" y1="314.789" x2="726.432" y2="327.789" style="stroke:#444;stroke-width:1;"/><line x1="685.432" y1="327.789" x2="726.432" y2="327.789" style="stroke:#444;stroke-width:1;"/><polygon points="695.432,323.789,685.432,327.789,695.432,331.789,691.432,327.789" fill="#444" style="stroke:#444;stroke-width:1;stroke-linejoin:miter;stroke-miterlimit:10;"/><text x="724.332" y="294.59" fill="#000" font-size="13" textLength="178.382" font-family="Helvetica">type is a framework agent?</text><text x="691.432" y="309.723" fill="#000" font-size="13" textLength="244.182" font-family="Helvetica">path in the prompt, else the mapping</text><polygon points="943.571,383.188,953.571,387.188,943.571,391.188,947.571,387.188" fill="#444" style="stroke:#444;stroke-width:1;stroke-linejoin:miter;stroke-miterlimit:10;"/><line x1="684.432" y1="387.188" x2="949.571" y2="387.188" style="stroke:#444;stroke-width:1;"/><text x="701.884" y="351.856" fill="#000" font-size="13" textLength="236.234" font-family="Helvetica">one line: time, session, type, model,</text><text x="696.432" y="366.989" fill="#000" font-size="13" textLength="247.14" font-family="Helvetica">turns, token counts, activity intervals,</text><text x="749.552" y="382.122" fill="#000" font-size="13" textLength="140.899" font-family="Helvetica">wall time, offset, plan</text><polygon points="1078.258,412.32,1088.258,416.32,1078.258,420.32,1082.258,416.32" fill="#444" style="stroke:#444;stroke-width:1;stroke-linejoin:miter;stroke-miterlimit:10;"/><line x1="48.374" y1="416.32" x2="1084.258" y2="416.32" style="stroke:#444;stroke-width:1;"/><text x="509.537" y="411.254" fill="#000" font-size="13" textLength="119.558" font-family="Helvetica">at the task's finish</text><polygon points="966.571,441.453,956.571,445.453,966.571,449.453,962.571,445.453" fill="#444" style="stroke:#444;stroke-width:1;stroke-linejoin:miter;stroke-miterlimit:10;"/><line x1="960.571" y1="445.453" x2="1089.258" y2="445.453" style="stroke:#444;stroke-width:1;"/><text x="1008.134" y="440.387" fill="#000" font-size="13" textLength="29.561" font-family="Helvetica">read</text><polygon points="1293.037,500.852,1303.037,504.852,1293.037,508.852,1297.037,504.852" fill="#444" style="stroke:#444;stroke-width:1;stroke-linejoin:miter;stroke-miterlimit:10;"/><line x1="1090.258" y1="504.852" x2="1299.037" y2="504.852" style="stroke:#444;stroke-width:1;"/><text x="1147.085" y="469.52" fill="#000" font-size="13" textLength="101.125" font-family="Helvetica">rate per model;</text><text x="1102.258" y="484.653" fill="#000" font-size="13" textLength="190.779" font-family="Helvetica">fetched when a model is new</text><text x="1112.522" y="499.786" fill="#000" font-size="13" textLength="170.25" font-family="Helvetica">or the cache is a week old</text><polygon points="1458.282,545.117,1468.282,549.117,1458.282,553.117,1462.282,549.117" fill="#444" style="stroke:#444;stroke-width:1;stroke-linejoin:miter;stroke-miterlimit:10;"/><line x1="1090.258" y1="549.117" x2="1464.282" y2="549.117" style="stroke:#444;stroke-width:1;"/><text x="1179.371" y="528.918" fill="#000" font-size="13" textLength="201.798" font-family="Helvetica">dollars and counts per session,</text><text x="1201.013" y="544.051" fill="#000" font-size="13" textLength="158.514" font-family="Helvetica">per plan, per agent type</text><polygon points="1610.013,574.25,1620.013,578.25,1610.013,582.25,1614.013,578.25" fill="#444" style="stroke:#444;stroke-width:1;stroke-linejoin:miter;stroke-miterlimit:10;"/><line x1="1090.258" y1="578.25" x2="1616.013" y2="578.25" style="stroke:#444;stroke-width:1;"/><text x="1207.359" y="573.184" fill="#000" font-size="13" textLength="297.553" font-family="Helvetica">deterministic template + embedded intervals</text><?plantuml-src ZLHDRzf04BtxLupIGriLGWyeHMb41IKegaA20hrnMRnZl6Kzw-wkSL3L_zxPDH0dKjJuODdpyURDczbrMqMbiA80YPcej9yQydUYGBX1lKElKf6uKupBXJIreWraGZjiUKRMclgxqSR2ktw_tyx1tnLIYZDqJcnmfDM684NoQ5jH_EPQgXJauKy2C1RfTcDDHV80EkrFBwQ3u35MeZrO1uD1yhS58uKNQ-7m5Opu_0-3Z7yz_s8oUPa_7WmkFeyP8catSSQ0Mg_eW-E-bQ6FPo0SB9x7p2qkZT4_cN1kp9QZnyBbJUZyuJevjNDslb6-vwNiEgdJteeEgAvtTVWQngJPQFw2HRNkikhaetlqtBcerj6tyAQC11gEo_jvgx8qALUXOVVA2xSTScsBEuLrBpNEd_zoXdHC-x6ulxjzZXyZN0uMIsCR1W_NRMmhFBfBMBF46kMAIikvj8ce7QWSMaX5ccEJEbfUBzvCh92D89EtP8ZKgvto-_FS5qqtDylPRP8ie3iCWu1BABMWq8lpmbSE8jINxcClsWkPX2WEvW5my64cmN0CJE9QMRN9FPWiJXT0q1uotZciZTs2IwqgFNUiDVj85E6W2GXSGIgBgJTsdo39kA8DkL6eLegQvIgjAJYTyz2jw4ImCBBIs1KdfgEG5uRCgN7ym90kYPOdZz-N2Cfn_IU2CVeRZqdu71I1p_5GjGF8zq4q5A8icVW9B-u50nf2q8gGeLM1dQD6dLYf0qmJTMT5lhBas6YsoDS47pxFVyVvS56-DdPyzt1apJeTi4oMEMGIeSL65zwpq9wFb8A2xnraYfJBa-1gyR8evD4MLopOU2-XvEsBhBwkA4FFQoYXpfcLQCn17S9wHNm9X2fnKnl9QiGj67t2dKqOL1gjXMKt3x1fB9Ouwi2oyb_ee1FjpMY2E4UKi9C11rc38lJ29mqy5fp3T3y15ckKabcULFe7?></g></svg>