<svg xmlns="http://www.w3.org/2000/svg" xmlns:xlink="http://www.w3.org/1999/xlink" version="1.1" data-diagram-type="ACTIVITY" style="width:632px;height:922px;background:#FFFFFF;" width="632px" height="922px" viewBox="0 0 632 922" zoomAndPan="magnify" preserveAspectRatio="none" contentStyleType="text/css"><?plantuml 1.2026.8beta1?><defs/><g font-family="sans-serif" lengthAdjust="spacing"><ellipse cx="314.421" cy="25" rx="10" ry="10" fill="#222" style="stroke:#222;stroke-width:1;"/><rect x="240.495" y="55" width="147.852" height="61.906" fill="#FFF6DD" style="stroke:#B8860B;stroke-width:0.5;" rx="12.5" ry="12.5"/><text x="250.495" y="76.139" fill="#000" font-size="12" textLength="127.852" font-family="Helvetica">Gate: designs settled</text><text x="250.495" y="90.107" fill="#000" font-size="12" textLength="87.17" font-family="Helvetica">and approved,</text><text x="250.495" y="104.076" fill="#000" font-size="12" textLength="103.342" font-family="Helvetica">findings actioned</text><rect x="223.503" y="136.906" width="181.836" height="47.938" fill="#FFF6DD" style="stroke:#B8860B;stroke-width:0.5;" rx="12.5" ry="12.5"/><text x="233.503" y="158.045" fill="#000" font-size="12" textLength="161.836" font-family="Helvetica">Gate: every module green,</text><text x="233.503" y="172.014" fill="#000" font-size="12" textLength="124.652" font-family="Helvetica">baseline counts kept</text><rect x="230.689" y="253.246" width="167.463" height="47.938" fill="#F4F6F8" style="stroke:#888;stroke-width:0.5;" rx="12.5" ry="12.5"/><text x="240.689" y="274.385" fill="#000" font-size="12" textLength="130.154" font-family="Helvetica">Seam pipeline, alone:</text><text x="240.689" y="288.354" fill="#000" font-size="12" textLength="147.463" font-family="Helvetica">artifact, wiring, call sites</text><rect x="236.467" y="336.184" width="155.908" height="47.938" fill="#FFF6DD" style="stroke:#B8860B;stroke-width:0.5;" rx="12.5" ry="12.5"/><text x="246.467" y="357.322" fill="#000" font-size="12" textLength="124.313" font-family="Helvetica">Gate: seam modules</text><text x="246.467" y="371.291" fill="#000" font-size="12" textLength="135.908" font-family="Helvetica">compile and are green</text><polygon points="268.318,204.844,360.523,204.844,372.523,216.844,360.523,228.844,268.318,228.844,256.318,216.844,268.318,204.844" fill="#FFF" style="stroke:#888;stroke-width:0.5;stroke-linejoin:miter;stroke-miterlimit:10;"/><text x="318.421" y="239.054" fill="#000" font-size="11" textLength="19.008" font-family="Helvetica">yes</text><text x="268.318" y="220.652" fill="#000" font-size="11" textLength="92.206" font-family="Helvetica">shared/plan.md?</text><polygon points="314.421,404.121,326.421,416.121,314.421,428.121,302.421,416.121,314.421,404.121" fill="#FFF" style="stroke:#888;stroke-width:0.5;stroke-linejoin:miter;stroke-miterlimit:10;"/><rect x="16" y="448.121" width="596.841" height="6" fill="#555" style="stroke:#555;stroke-width:1;" rx="2.5" ry="2.5"/><path d="M177.096,464.121 L177.096,487.82 L157.096,491.82 L177.096,495.82 L177.096,519.52 A0,0 0 0 0 177.096,519.52 L383.746,519.52 A0,0 0 0 0 383.746,519.52 L383.746,474.121 L373.746,464.121 L177.096,464.121 A0,0 0 0 0 177.096,464.121" style="stroke:#181818;stroke-width:0.5;" fill="#FEFFDD"/><path d="M373.746,464.121 L373.746,474.121 L383.746,474.121 L373.746,464.121" style="stroke:#181818;stroke-width:0.5;" fill="#FEFFDD"/><text x="183.096" y="481.188" fill="#000" font-size="13" textLength="161.916" font-family="Helvetica">at most as many at once</text><text x="183.096" y="496.321" fill="#000" font-size="13" textLength="173.469" font-family="Helvetica">as your conventions allow;</text><text x="183.096" y="511.454" fill="#000" font-size="13" textLength="185.65" font-family="Helvetica">two, where they say nothing</text><rect x="28" y="474.836" width="129.096" height="33.969" fill="#F4F6F8" style="stroke:#888;stroke-width:0.5;" rx="12.5" ry="12.5"/><text x="38" y="495.975" fill="#000" font-size="12" textLength="109.096" font-family="Helvetica">pipeline for plan 1</text><rect x="411.746" y="474.836" width="129.096" height="33.969" fill="#F4F6F8" style="stroke:#888;stroke-width:0.5;" rx="12.5" ry="12.5"/><text x="421.746" y="495.975" fill="#000" font-size="12" textLength="109.096" font-family="Helvetica">pipeline for plan 2</text><rect x="568.841" y="474.836" width="32" height="33.969" fill="#F4F6F8" style="stroke:#888;stroke-width:0.5;" rx="12.5" ry="12.5"/><text x="578.841" y="495.975" fill="#000" font-size="12" font-family="Helvetica">…</text><rect x="16" y="539.52" width="596.841" height="6" fill="#555" style="stroke:#555;stroke-width:1;" rx="2.5" ry="2.5"/><rect x="246.304" y="565.52" width="136.232" height="47.938" fill="#FFF6DD" style="stroke:#B8860B;stroke-width:0.5;" rx="12.5" ry="12.5"/><text x="256.304" y="586.658" fill="#000" font-size="12" textLength="116.232" font-family="Helvetica">Gate: no open item</text><text x="256.304" y="600.627" fill="#000" font-size="12" textLength="66.539" font-family="Helvetica">in any plan</text><rect x="234.36" y="633.457" width="160.121" height="61.906" fill="#F4F6F8" style="stroke:#888;stroke-width:0.5;" rx="12.5" ry="12.5"/><text x="244.36" y="654.596" fill="#000" font-size="12" textLength="140.121" font-family="Helvetica">review/acceptance.md,</text><text x="244.36" y="668.564" fill="#000" font-size="12" textLength="118.518" font-family="Helvetica">review/findings.md,</text><text x="244.36" y="682.533" fill="#000" font-size="12" textLength="104.027" font-family="Helvetica">review/report.md</text><rect x="238.848" y="715.363" width="151.145" height="33.969" fill="#F4F6F8" style="stroke:#888;stroke-width:0.5;" rx="12.5" ry="12.5"/><text x="248.848" y="736.502" fill="#000" font-size="12" textLength="131.145" font-family="Helvetica">archive task directory</text><rect x="281.742" y="769.332" width="65.357" height="33.969" fill="#F4F6F8" style="stroke:#888;stroke-width:0.5;" rx="12.5" ry="12.5"/><text x="291.742" y="790.471" fill="#000" font-size="12" textLength="45.357" font-family="Helvetica">commit</text><path d="M383.872,820.152 L383.872,836.285 L363.872,840.285 L383.872,844.285 L383.872,860.418 A0,0 0 0 0 383.872,860.418 L560.199,860.418 A0,0 0 0 0 560.199,860.418 L560.199,830.152 L550.199,820.152 L383.872,820.152 A0,0 0 0 0 383.872,820.152" style="stroke:#181818;stroke-width:0.5;" fill="#FEFFDD"/><path d="M550.199,820.152 L550.199,830.152 L560.199,830.152 L550.199,820.152" style="stroke:#181818;stroke-width:0.5;" fill="#FEFFDD"/><text x="389.872" y="837.219" fill="#000" font-size="13" textLength="93.907" font-family="Helvetica">the list in your</text><text x="389.872" y="852.352" fill="#000" font-size="13" textLength="96.186" font-weight="700" font-family="Helvetica">follow-up.md</text><text x="486.058" y="852.352" fill="#000" font-size="13" textLength="59.141" font-family="Helvetica">, in order</text><rect x="264.969" y="823.301" width="98.902" height="33.969" fill="#F4F6F8" style="stroke:#888;stroke-width:0.5;" rx="12.5" ry="12.5"/><text x="274.969" y="844.439" fill="#000" font-size="12" textLength="78.902" font-family="Helvetica">run follow-up</text><ellipse cx="314.421" cy="891.418" rx="11" ry="11" fill="none" style="stroke:#222;stroke-width:1;"/><ellipse cx="314.421" cy="891.418" rx="6" ry="6" fill="#222" style="stroke:#222;stroke-width:1;"/><line x1="314.421" y1="35" x2="314.421" y2="55" style="stroke:#444;stroke-width:1;"/><polygon points="310.421,45,314.421,55,318.421,45,314.421,49" fill="#444" style="stroke:#444;stroke-width:1;stroke-linejoin:miter;stroke-miterlimit:10;"/><line x1="314.421" y1="116.906" x2="314.421" y2="136.906" style="stroke:#444;stroke-width:1;"/><polygon points="310.421,126.906,314.421,136.906,318.421,126.906,314.421,130.906" fill="#444" style="stroke:#444;stroke-width:1;stroke-linejoin:miter;stroke-miterlimit:10;"/><line x1="314.421" y1="301.184" x2="314.421" y2="336.184" style="stroke:#444;stroke-width:1;"/><polygon points="310.421,326.184,314.421,336.184,318.421,326.184,314.421,330.184" fill="#444" style="stroke:#444;stroke-width:1;stroke-linejoin:miter;stroke-miterlimit:10;"/><line x1="314.421" y1="228.844" x2="314.421" y2="253.246" style="stroke:#444;stroke-width:1;"/><polygon points="310.421,243.246,314.421,253.246,318.421,243.246,314.421,247.246" fill="#444" style="stroke:#444;stroke-width:1;stroke-linejoin:miter;stroke-miterlimit:10;"/><line x1="372.523" y1="216.844" x2="408.152" y2="216.844" style="stroke:#444;stroke-width:1;"/><polygon points="404.152,308.684,408.152,318.684,412.152,308.684,408.152,312.684" fill="#444" style="stroke:#444;stroke-width:1;stroke-linejoin:miter;stroke-miterlimit:10;"/><line x1="408.152" y1="216.844" x2="408.152" y2="416.121" style="stroke:#444;stroke-width:1;"/><line x1="408.152" y1="416.121" x2="326.421" y2="416.121" style="stroke:#444;stroke-width:1;"/><polygon points="336.421,412.121,326.421,416.121,336.421,420.121,332.421,416.121" fill="#444" style="stroke:#444;stroke-width:1;stroke-linejoin:miter;stroke-miterlimit:10;"/><line x1="314.421" y1="384.121" x2="314.421" y2="404.121" style="stroke:#444;stroke-width:1;"/><polygon points="310.421,394.121,314.421,404.121,318.421,394.121,314.421,398.121" fill="#444" style="stroke:#444;stroke-width:1;stroke-linejoin:miter;stroke-miterlimit:10;"/><line x1="314.421" y1="184.844" x2="314.421" y2="204.844" style="stroke:#444;stroke-width:1;"/><polygon points="310.421,194.844,314.421,204.844,318.421,194.844,314.421,198.844" fill="#444" style="stroke:#444;stroke-width:1;stroke-linejoin:miter;stroke-miterlimit:10;"/><line x1="92.548" y1="454.121" x2="92.548" y2="474.836" style="stroke:#444;stroke-width:1;"/><polygon points="88.548,464.836,92.548,474.836,96.548,464.836,92.548,468.836" fill="#444" style="stroke:#444;stroke-width:1;stroke-linejoin:miter;stroke-miterlimit:10;"/><line x1="476.293" y1="454.121" x2="476.293" y2="474.836" style="stroke:#444;stroke-width:1;"/><polygon points="472.293,464.836,476.293,474.836,480.293,464.836,476.293,468.836" fill="#444" style="stroke:#444;stroke-width:1;stroke-linejoin:miter;stroke-miterlimit:10;"/><line x1="584.841" y1="454.121" x2="584.841" y2="474.836" style="stroke:#444;stroke-width:1;"/><polygon points="580.841,464.836,584.841,474.836,588.841,464.836,584.841,468.836" fill="#444" style="stroke:#444;stroke-width:1;stroke-linejoin:miter;stroke-miterlimit:10;"/><line x1="92.548" y1="508.805" x2="92.548" y2="539.52" style="stroke:#444;stroke-width:1;"/><polygon points="88.548,529.52,92.548,539.52,96.548,529.52,92.548,533.52" fill="#444" style="stroke:#444;stroke-width:1;stroke-linejoin:miter;stroke-miterlimit:10;"/><line x1="476.293" y1="508.805" x2="476.293" y2="539.52" style="stroke:#444;stroke-width:1;"/><polygon points="472.293,529.52,476.293,539.52,480.293,529.52,476.293,533.52" fill="#444" style="stroke:#444;stroke-width:1;stroke-linejoin:miter;stroke-miterlimit:10;"/><line x1="584.841" y1="508.805" x2="584.841" y2="539.52" style="stroke:#444;stroke-width:1;"/><polygon points="580.841,529.52,584.841,539.52,588.841,529.52,584.841,533.52" fill="#444" style="stroke:#444;stroke-width:1;stroke-linejoin:miter;stroke-miterlimit:10;"/><line x1="314.421" y1="428.121" x2="314.421" y2="448.121" style="stroke:#444;stroke-width:1;"/><polygon points="310.421,438.121,314.421,448.121,318.421,438.121,314.421,442.121" fill="#444" style="stroke:#444;stroke-width:1;stroke-linejoin:miter;stroke-miterlimit:10;"/><line x1="314.421" y1="545.52" x2="314.421" y2="565.52" style="stroke:#444;stroke-width:1;"/><polygon points="310.421,555.52,314.421,565.52,318.421,555.52,314.421,559.52" fill="#444" style="stroke:#444;stroke-width:1;stroke-linejoin:miter;stroke-miterlimit:10;"/><line x1="314.421" y1="613.457" x2="314.421" y2="633.457" style="stroke:#444;stroke-width:1;"/><polygon points="310.421,623.457,314.421,633.457,318.421,623.457,314.421,627.457" fill="#444" style="stroke:#444;stroke-width:1;stroke-linejoin:miter;stroke-miterlimit:10;"/><line x1="314.421" y1="695.363" x2="314.421" y2="715.363" style="stroke:#444;stroke-width:1;"/><polygon points="310.421,705.363,314.421,715.363,318.421,705.363,314.421,709.363" fill="#444" style="stroke:#444;stroke-width:1;stroke-linejoin:miter;stroke-miterlimit:10;"/><line x1="314.421" y1="749.332" x2="314.421" y2="769.332" style="stroke:#444;stroke-width:1;"/><polygon points="310.421,759.332,314.421,769.332,318.421,759.332,314.421,763.332" fill="#444" style="stroke:#444;stroke-width:1;stroke-linejoin:miter;stroke-miterlimit:10;"/><line x1="314.421" y1="803.301" x2="314.421" y2="823.301" style="stroke:#444;stroke-width:1;"/><polygon points="310.421,813.301,314.421,823.301,318.421,813.301,314.421,817.301" fill="#444" style="stroke:#444;stroke-width:1;stroke-linejoin:miter;stroke-miterlimit:10;"/><line x1="314.421" y1="857.27" x2="314.421" y2="880.418" style="stroke:#444;stroke-width:1;"/><polygon points="310.421,870.418,314.421,880.418,318.421,870.418,314.421,874.418" fill="#444" style="stroke:#444;stroke-width:1;stroke-linejoin:miter;stroke-miterlimit:10;"/><?plantuml-src VPFRZjCm48Rl_HGZSRDRXIsWgggQgeXI5IuGDpp144yIguvjsKwY2At4q_1WF0dZD3q0rUOgcUFt_wE4ep8EFJOWgSHMnuCryIis19z9TnHLWI9SQaADqlRAL52Y3dIJ-L14rQauxB0uLjwsHdwqsdfuTLWSbeVLlKhh9VcfQhMwLx9Ns5WZ_vyvFYyql33QUzjFcSLY8JOX3fgs0gyJgbJtGm0yLHXfV0Eunx3SxyVS5sLeYkvMg-MR7KUVnRFOpAVX8aJqKQm_yRmr6nrKPG84Yb6J56Wae7FUTYGpKIeZsU00YSWQalbcapYsstC_TUG7QAniDK7bYKmclcCWpHXGC68CS2GNhusgX0S-dISvTnhDKoFVFqAioS33GE6HSTVVY4KxvSOf6Q3crMjECBSg6IM3Nddcog10hI6eI25FZIUcaDfFI86ZXMsSOhfHcfyehpp44ajHMdzC4yvRWGEG-E1jccmic-zLLSVHP8myFqJ000sQ8NrRKz0f5s2mhUUrfYEJR6FxjBPzFgPZRnc_9WPXqGC47DBqckLmdc76NICFO8NAtATwb_zJylldhpnfWL79v8InO1qxomOrGXb8hAdzveoUEaNz78k2huGiWW-IYIbwllzjp9EpFd8a5slqHQqwLeBX259vAgBr0oVOyqP5Vl6jOQ8a_tNhSl6NZwmVj68RcInPng7Px5BC6sQpBEN67qXSh0dHkZy0?></g></svg>