<svg xmlns="http://www.w3.org/2000/svg" xmlns:xlink="http://www.w3.org/1999/xlink" version="1.1" data-diagram-type="DESCRIPTION" style="width:692px;height:320px;background:#FFFFFF;" width="692px" height="320px" viewBox="0 0 692 320" zoomAndPan="magnify" preserveAspectRatio="none" contentStyleType="text/css"><?plantuml 1.2026.8beta1?><defs/><g font-family="sans-serif" lengthAdjust="spacing"><!--entity IC--><g class="entity" data-qualified-name="IC" id="ent0001" data-source-line="14"><rect x="28.79" y="7" width="132.212" height="36.297" fill="#F4F6F8" style="stroke:#888;stroke-width:0.5;" rx="2.5" ry="2.5"/><text x="38.79" y="29.995" fill="#000" font-size="14" textLength="112.212" font-family="Helvetica">init-conventions</text></g><!--entity DT--><g class="entity" data-qualified-name="DT" id="ent0002" data-source-line="15"><rect x="196.41" y="7" width="100.965" height="36.297" fill="#F4F6F8" style="stroke:#888;stroke-width:0.5;" rx="2.5" ry="2.5"/><text x="206.41" y="29.995" fill="#000" font-size="14" textLength="80.965" font-family="Helvetica">design-task</text></g><!--entity PT--><g class="entity" data-qualified-name="PT" id="ent0003" data-source-line="16"><rect x="347.52" y="7" width="84.75" height="36.297" fill="#F4F6F8" style="stroke:#888;stroke-width:0.5;" rx="2.5" ry="2.5"/><text x="357.52" y="29.995" fill="#000" font-size="14" textLength="64.75" font-family="Helvetica">plan-task</text></g><!--entity IP--><g class="entity" data-qualified-name="IP" id="ent0004" data-source-line="17"><rect x="493.49" y="7" width="130.811" height="36.297" fill="#F4F6F8" style="stroke:#888;stroke-width:0.5;" rx="2.5" ry="2.5"/><text x="503.49" y="29.995" fill="#000" font-size="14" textLength="110.811" font-family="Helvetica">implement-plan</text></g><!--entity CV--><g class="entity" data-qualified-name="CV" id="ent0005" data-source-line="18"><path d="M26.97,130.95 L26.97,178.544 A2.5,2.5 0 0 0 29.47,181.044 L160.312,181.044 A2.5,2.5 0 0 0 162.812,178.544 L162.812,138.45 L152.812,128.45 L29.47,128.45 A2.5,2.5 0 0 0 26.97,130.95" style="stroke:#888;stroke-width:0.5;" fill="#FFF"/><path d="M152.812,128.45 L152.812,135.95 A2.5,2.5 0 0 0 155.312,138.45 L162.812,138.45" style="stroke:#888;stroke-width:0.5;" fill="#FFF"/><text x="36.97" y="151.445" fill="#000" font-size="14" textLength="111.993" font-family="Helvetica">conventions.md</text><text x="36.97" y="167.742" fill="#000" font-size="14" textLength="115.842" font-family="Helvetica">(repo + module)</text></g><!--entity D--><g class="entity" data-qualified-name="D" id="ent0006" data-source-line="19"><path d="M197.99,122.8 L197.99,186.691 A2.5,2.5 0 0 0 200.49,189.191 L315.302,189.191 A2.5,2.5 0 0 0 317.802,186.691 L317.802,130.3 L307.802,120.3 L200.49,120.3 A2.5,2.5 0 0 0 197.99,122.8" style="stroke:#888;stroke-width:0.5;" fill="#FFF"/><path d="M307.802,120.3 L307.802,127.8 A2.5,2.5 0 0 0 310.302,130.3 L317.802,130.3" style="stroke:#888;stroke-width:0.5;" fill="#FFF"/><text x="207.99" y="143.295" fill="#000" font-size="14" textLength="59.466" font-family="Helvetica">spec.md</text><text x="207.99" y="159.592" fill="#000" font-size="14" textLength="73.418" font-family="Helvetica">design.md</text><text x="207.99" y="175.889" fill="#000" font-size="14" textLength="99.812" font-family="Helvetica">design-log.md</text></g><!--entity P--><g class="entity" data-qualified-name="P" id="ent0007" data-source-line="20"><path d="M353.1,122.8 L353.1,186.691 A2.5,2.5 0 0 0 355.6,189.191 L454.197,189.191 A2.5,2.5 0 0 0 456.697,186.691 L456.697,130.3 L446.697,120.3 L355.6,120.3 A2.5,2.5 0 0 0 353.1,122.8" style="stroke:#888;stroke-width:0.5;" fill="#FFF"/><path d="M446.697,120.3 L446.697,127.8 A2.5,2.5 0 0 0 449.197,130.3 L456.697,130.3" style="stroke:#888;stroke-width:0.5;" fill="#FFF"/><text x="363.1" y="143.295" fill="#000" font-size="14" textLength="57.203" font-family="Helvetica">plan.md</text><text x="363.1" y="159.592" fill="#000" font-size="14" textLength="83.597" font-family="Helvetica">plan-log.md</text><text x="363.1" y="175.889" fill="#000" font-size="14" textLength="80.172" font-family="Helvetica">per module</text></g><!--entity C--><g class="entity" data-qualified-name="C" id="ent0008" data-source-line="21"><path d="M491.95,122.8 L491.95,186.691 A2.5,2.5 0 0 0 494.45,189.191 L675.338,189.191 A2.5,2.5 0 0 0 677.838,186.691 L677.838,130.3 L667.838,120.3 L494.45,120.3 A2.5,2.5 0 0 0 491.95,122.8" style="stroke:#888;stroke-width:0.5;" fill="#FFF"/><path d="M667.838,120.3 L667.838,127.8 A2.5,2.5 0 0 0 670.338,130.3 L677.838,130.3" style="stroke:#888;stroke-width:0.5;" fill="#FFF"/><text x="501.95" y="143.295" fill="#000" font-size="14" textLength="81.293" font-family="Helvetica">code, tests,</text><text x="501.95" y="159.592" fill="#000" font-size="14" textLength="165.888" font-family="Helvetica">report.md, findings.md,</text><text x="501.95" y="175.889" fill="#000" font-size="14" textLength="152.865" font-family="Helvetica">cost.md, activity.html</text></g><g class="entity" data-qualified-name="GMN9" id="ent0010" data-source-line="24"><path d="M6,250.19 L6,305.588 A0,0 0 0 0 6,305.588 L183.787,305.588 A0,0 0 0 0 183.787,305.588 L183.787,260.19 L173.787,250.19 L98.89,250.19 L94.89,181.44 L90.89,250.19 L6,250.19 A0,0 0 0 0 6,250.19" style="stroke:#181818;stroke-width:0.5;" fill="#FEFFDD"/><path d="M173.787,250.19 L173.787,260.19 L183.787,260.19 L173.787,250.19" style="stroke:#181818;stroke-width:0.5;" fill="#FEFFDD"/><text x="12" y="267.257" fill="#000" font-size="13" textLength="156.787" font-family="Helvetica">yours to edit: every skill</text><text x="12" y="282.39" fill="#000" font-size="13" textLength="150.509" font-family="Helvetica">reads these, the plugin</text><text x="12" y="297.523" fill="#000" font-size="13" textLength="133.612" font-family="Helvetica">holds no project fact</text></g><!--link IC to DT--><g class="link" data-entity-1="ent0001" data-entity-2="ent0002" id="lnk12" data-source-line="29" data-link-type="dependency"><path d="M161.39,25.15 C172.97,25.15 179.55,25.15 191.13,25.15" style="stroke:#444;stroke-width:1;" fill="none" id="IC-to-DT"/><polygon points="196.13,25.15,187.13,21.15,191.13,25.15,187.13,29.15,196.13,25.15" fill="#444" style="stroke:#444;stroke-width:1;stroke-linejoin:miter;stroke-miterlimit:10;"/></g><!--link DT to PT--><g class="link" data-entity-1="ent0002" data-entity-2="ent0003" id="lnk13" data-source-line="30" data-link-type="dependency"><path d="M297.73,25.15 C314.17,25.15 325.61,25.15 342.05,25.15" style="stroke:#444;stroke-width:1;" fill="none" id="DT-to-PT"/><polygon points="347.05,25.15,338.05,21.15,342.05,25.15,338.05,29.15,347.05,25.15" fill="#444" style="stroke:#444;stroke-width:1;stroke-linejoin:miter;stroke-miterlimit:10;"/></g><!--link PT to IP--><g class="link" data-entity-1="ent0003" data-entity-2="ent0004" id="lnk14" data-source-line="31" data-link-type="dependency"><path d="M432.47,25.15 C452.72,25.15 467.97,25.15 488.21,25.15" style="stroke:#444;stroke-width:1;" fill="none" id="PT-to-IP"/><polygon points="493.21,25.15,484.21,21.15,488.21,25.15,484.21,29.15,493.21,25.15" fill="#444" style="stroke:#444;stroke-width:1;stroke-linejoin:miter;stroke-miterlimit:10;"/></g><!--link IC to CV--><g class="link" data-entity-1="ent0001" data-entity-2="ent0005" id="lnk15" data-source-line="32" data-link-type="dependency"><path d="M94.89,43.63 C94.89,65.47 94.89,98.02 94.89,123.12" style="stroke:#444;stroke-width:1;" fill="none" id="IC-to-CV"/><polygon points="94.89,128.12,98.89,119.12,94.89,123.12,90.89,119.12,94.89,128.12" fill="#444" style="stroke:#444;stroke-width:1;stroke-linejoin:miter;stroke-miterlimit:10;"/></g><!--link DT to D--><g class="link" data-entity-1="ent0002" data-entity-2="ent0006" id="lnk16" data-source-line="33" data-link-type="dependency"><path d="M248.4,43.63 C250.09,63.21 252.442,90.458 254.552,115.008" style="stroke:#444;stroke-width:1;" fill="none" id="DT-to-D"/><polygon points="254.98,119.99,258.195,110.681,254.552,115.008,250.224,111.366,254.98,119.99" fill="#444" style="stroke:#444;stroke-width:1;stroke-linejoin:miter;stroke-miterlimit:10;"/></g><!--link PT to P--><g class="link" data-entity-1="ent0003" data-entity-2="ent0007" id="lnk17" data-source-line="34" data-link-type="dependency"><path d="M391.95,43.63 C394.25,63.21 397.457,90.474 400.337,115.024" style="stroke:#444;stroke-width:1;" fill="none" id="PT-to-P"/><polygon points="400.92,119.99,403.844,110.585,400.337,115.024,395.899,111.517,400.92,119.99" fill="#444" style="stroke:#444;stroke-width:1;stroke-linejoin:miter;stroke-miterlimit:10;"/></g><!--link PT to D--><g class="link" data-entity-1="ent0003" data-entity-2="ent0006" id="lnk18" data-source-line="35" data-link-type="dependency"><path d="M347.21,40.44 C329.61,48.01 310.05,58.8 295.89,73.3 C283.16,86.34 275.892,99.786 269.812,115.526" style="stroke:#444;stroke-width:1;" fill="none" id="PT-to-D"/><polygon points="268.01,120.19,274.984,113.236,269.812,115.526,267.522,110.353,268.01,120.19" fill="#444" style="stroke:#444;stroke-width:1;stroke-linejoin:miter;stroke-miterlimit:10;"/><text x="296.89" y="86.367" fill="#000" font-size="13" textLength="90.232" font-family="Helvetica">Approved line</text></g><!--link IP to C--><g class="link" data-entity-1="ent0004" data-entity-2="ent0008" id="lnk19" data-source-line="36" data-link-type="dependency"><path d="M562.45,43.63 C566.45,63.21 572.012,90.541 577.012,115.091" style="stroke:#444;stroke-width:1;" fill="none" id="IP-to-C"/><polygon points="578.01,119.99,580.133,110.373,577.012,115.091,572.294,111.969,578.01,119.99" fill="#444" style="stroke:#444;stroke-width:1;stroke-linejoin:miter;stroke-miterlimit:10;"/></g><!--link CV to D--><!--link D to P--><!--link P to C--><?plantuml-src TPB1Rjim38RlUWeYkwnOt5Cm13qCw1m4osN8eUYbwK6p65kBJ0gIx28OzkwbPBVpWCqdIjzFyXVfUB7aTT0z63phmQKzK_gkUuHlw4PCjj4glcjYfms_M6hXh5t41RaFWLzgTXpWmsQpMP20JTBKEeHV2k2hRYvju87CBDvlzf_tsqmu60ppxNQxLRyNHSxsl_db-tT-OW-9uGUdnF90cwrO9gN-U5fPigbgc4QapE8AT8H3lPGOZBQbAkbuANJtiAJUwGKx_iLixntsKhdAggdqKPN7h1OzRtjpeey1FSCdwDaC3c-Ak7wSnT5Z8oeuqMIcPCo-7BTod9pDyjojI8gvII0737FroUgx4ODhI1XJN9yekmX9z6iPEXdPTROdeE4uNMiPucZJzRPBlPjiAaMSy6tGVCx60QuyX9WNWCQcEy0HmnLafyu93AYDm0vZRjuXU3UqbeHqx8GGWm_yKsOf_rgJ59A1t4IfGmtLbxo4tKCEPEB74iXaCv98kcUMLOLbrLkmWpkuzr9wH0FE4gh3SKfIzIDKJvqr1kavf-wMHocmFDQl?></g></svg>